<?xml version="1.0" encoding="utf-8"?>
<!-- Generator: Adobe Illustrator 26.0.2, SVG Export Plug-In . SVG Version: 6.00 Build 0)  -->
<svg version="1.1" id="Layer_1" xmlns="http://www.w3.org/2000/svg" xmlns:xlink="http://www.w3.org/1999/xlink" x="0px" y="0px"
	 viewBox="0 0 502.3 151.4" style="enable-background:new 0 0 502.3 151.4;" xml:space="preserve">
<g>
	<path d="M79.8,20.9v0.2c-1.5,3.4-2.8,6.8-3.9,10c-1.4,3.9-2.4,9-2.9,15.2c-2,5.7-2.9,10.4-2.9,14l1.1,10.2v1.4c0,4-0.7,8.9-2,14.5
		v0.2c0,0.6,0.8,4.1,2.5,10.6c0,0.6-0.2,2.5-0.7,5.7c0.6,1.8,0.9,3.2,0.9,4.3v0.5h-0.5c-3.4,0-5.9,0.1-7.5,0.2
		c-8.3,0-12.5-0.5-12.5-1.4c0-3.7,0.7-6.8,2-9.3v-0.9c0-0.4-0.3-1.5-0.9-3.2v-2.3c0-4.9,0.5-9.6,1.4-13.8h-0.5
		c-6.3,1.7-9.5,3.4-9.5,5.2c-1,4.2-2.5,8.8-4.3,13.8l-2,2.9v4.5c0,1.1-1.2,3.5-3.6,7.2c-1.2,4.5-2.5,6.8-4.1,6.8
		c-1.1-7.4-1.7-12.9-2-16.5c0.3-2,0.5-3.1,0.5-3.2c-0.2-3.9-0.2-6.1-0.2-6.8c0.3-2.2,0.5-3.9,0.5-5c-0.5-6-0.7-9.6-0.7-10.6
		c0-0.8,0.2-7.1,0.5-19l0.7-3.9c0-0.9-1.1-5.4-3.4-13.4c0-0.6,0.1-0.9,0.2-0.9c1.7-0.8,5.1-1.3,10.2-1.6c5.6-2,9.3-2.9,11.3-2.9
		l0.2,1.1v0.2c-1.7,4.6-2.5,10.2-2.5,17v2.5c0,4.2,0.8,7.2,2.5,9.1l0.2,1.4v0.5H49c3.6,0,5.4-1.4,5.4-4.1c0.8-0.9,1.1-2.2,1.1-3.9
		v-1.1c0-0.9-0.1-2.1-0.2-3.4c1.1-11.7,2.7-18.4,4.8-20.2c1.5-2.4,6.5-5.6,15-9.5C76.8,21.7,78.4,20.9,79.8,20.9z"/>
	<path d="M128.8,31.8c2.4,0,3.6,0.2,3.6,0.7v1.1c-2.5,0.7-6.7,2.5-12.5,5.4c-2.8,1.1-8,2.6-15.6,4.5c-3.3,0.8-5,2.3-5,4.5l-1.4,9.1
		h0.2c1.5,0,4.2,0.8,7.9,2.3c0.5,0.3,2.6,0.5,6.3,0.7c1.3,0.6,3.4,1.1,6.3,1.6c0.2,0.3,0.2,0.5,0.2,0.7c0,1.2-3.2,2.4-9.7,3.4
		c-2.2,0.9-6.4,2.1-12.7,3.6c-1.4,2.6-2.6,7-3.6,13.4V83c0.3,0,0.6,0.1,0.9,0.2c0.7-0.3,1.4-0.5,2.3-0.5c0.9,0,4.2,0.4,10,1.1
		l3.4-0.7c2.2,0.4,4.9,0.7,8.4,0.9c1.3-0.2,2.5-0.2,3.4-0.2h7c0.3,0,0.5,0.2,0.5,0.5v0.2c0,1.5-2.8,3-8.4,4.5
		c-6.7,3.6-11.2,5.4-13.6,5.4c-5,0.7-8.7,1.8-11.1,3.2c-8.5,1.5-12.7,2.7-12.7,3.6c-0.5,0.3-4.1,2.8-10.6,7.5h-0.2
		c-0.2,0-0.5-0.2-0.7-0.7v-0.2c1.4-3.1,2.5-9.3,3.4-18.6c2.4-11,4.8-25.5,7-43.5c-4.8-5.4-7.2-8.8-7.2-10.2c0.3,0,0.5-0.1,0.5-0.2
		l2.3,0.2h1.6l8.6-0.9c1,0,2.3,0.2,3.9,0.5c6.9-1.5,10.8-2.3,11.6-2.3h9.7C118.9,32.2,124.3,31.8,128.8,31.8z"/>
	<path d="M133.5,33c4.4,1.1,6.9,1.6,7.5,1.6h1.1c1.9,0,5.9-0.5,12-1.4h0.7c2.6,0,3.9,0.2,3.9,0.7c-5.1,9.1-7.7,18.1-7.7,27v3.6
		c0,0.5-1,3.2-2.9,8.4l-0.5,1.4c0.3,4.2,0.5,7.3,0.5,9.5c0,0.9-0.2,2.3-0.5,4.3c1.8-1.1,4-1.6,6.6-1.6c9.8,0,16.3,1.5,19.7,4.5
		c2.9,2.2,4.3,4.7,4.3,7.5V99c0,0.3-0.2,0.5-0.7,0.5c-2.9-2-6.1-2.9-9.7-2.9c-13,0-26,6.3-39,18.8h-0.2c-0.5,0-0.9-1.1-1.4-3.2v-2.5
		c3.5-11.6,5.2-20.7,5.2-27.4c0.6-2.8,1.1-6.9,1.6-12.2c-0.3-3.5-0.5-6.2-0.5-7.9c1.1-4.2,1.6-8.2,1.6-12c0.1,0,0.4-1.2,0.9-3.4
		c-2-3.1-2.9-5.9-2.9-8.2C133.2,34.9,133.3,33,133.5,33z"/>
	<path d="M200.6,31.9h0.5v0.2c-1.1,2.5-2,5.1-2.7,7.9c-1.7,10.2-2.5,15.6-2.5,16.3v7.9c-0.9,5.1-1.4,8.7-1.4,10.6
		c0,1.9,0.1,4.2,0.2,7l-0.5,6.1c2.3,8.5,3.4,14.1,3.4,17v1.1c-1.3,0.2-8.6,0.5-21.8,0.9l-0.2-0.5v-0.5c2.9-3.2,4.3-7.8,4.3-13.6
		v-1.8c0-2.2-0.5-8.7-1.6-19.5v-0.2l1.1-9.5c-0.9-6-1.4-10.3-1.4-12.9c1.1-7.1,2.1-10.6,2.9-10.6c2.6-2.1,5.4-3.2,8.4-3.2
		c3.7,0,6.7-0.8,9.1-2.5C199.5,32.1,200.2,31.9,200.6,31.9z"/>
	<path d="M198.5,27.4c3.9,0.5,7.1,0.7,9.5,0.7h12c2.1,2.7,3.2,5.9,3.2,9.7c2,1.8,2.9,4,2.9,6.6c2.6,2.8,3.9,4.4,3.9,4.8h0.5
		c1-0.3,3.8-2.9,8.4-7.7c2.3-1.3,3.4-2.9,3.4-4.8c1-3,1.8-4.5,2.5-4.5h5.2c6-0.5,10-0.7,11.8-0.7h0.9c3.2,0.1,4.8,0.5,4.8,1.1v0.9
		c-0.8,0.4-3.4,2.4-7.9,6.1c-3,1-4.5,1.9-4.5,2.5c0,0.9-3.7,5.4-11.1,13.4c-2.5,4-3.9,7.4-4.1,10.2c0,1.7,1.6,4.5,4.8,8.4
		c0,2.4,1.3,5.4,3.9,9.1c1.8,2.2,3.1,5.4,3.9,9.7c1.7,6.6,3.3,11.4,5,14.3l0.2,1.6v0.5l-1.6,0.2h-0.2c-1.2-0.8-5.1-4.7-11.8-11.8
		c-1.1,0-2.3-1.8-3.9-5.4c-3.5-3.4-5.2-5.7-5.2-7l-4.8-5.9c-0.3-0.9-0.6-1.4-0.9-1.4h-0.2c-3.3,4.9-5.7,8.7-7.2,11.6
		c-0.8,2-1.4,5.9-2,11.8l-1.4,3.4c-1.9,0.2-3,0.2-3.4,0.2c-1.1,0-3.1-0.1-6.1-0.2c-3.7,0.8-6.5,1.1-8.4,1.1c-1.4,0-2-0.5-2-1.6
		c1.3-5.9,2.5-8.8,3.4-8.8c2.3-3.2,3.4-5.4,3.4-6.6c3.9-4.6,5.9-7.3,5.9-7.9c1.2-3.7,3.1-6.6,5.7-8.8l2.9-4.3
		c-0.7-3.1-2.1-6.5-4.3-10.2c-5.1-6.7-7.7-10.8-7.7-12.5c-1.7-5.2-3.5-8.1-5.4-8.8c-2.9-1.7-4.3-4.5-4.3-8.4
		C197.9,27.8,198.2,27.7,198.5,27.4z"/>
	<path d="M267.5,33c4.4,1.1,6.9,1.6,7.5,1.6h1.1c1.9,0,5.9-0.5,12-1.4h0.7c2.6,0,3.9,0.2,3.9,0.7c-5.1,9.1-7.7,18.1-7.7,27v3.6
		c0,0.5-1,3.2-2.9,8.4l-0.5,1.4c0.3,4.2,0.5,7.3,0.5,9.5c0,0.9-0.2,2.3-0.5,4.3c1.8-1.1,4-1.6,6.6-1.6c9.8,0,16.3,1.5,19.7,4.5
		c2.9,2.2,4.3,4.7,4.3,7.5V99c0,0.3-0.2,0.5-0.7,0.5c-2.9-2-6.1-2.9-9.7-2.9c-13,0-26,6.3-39,18.8h-0.2c-0.5,0-0.9-1.1-1.4-3.2v-2.5
		c3.5-11.6,5.2-20.7,5.2-27.4c0.6-2.8,1.1-6.9,1.6-12.2c-0.3-3.5-0.5-6.2-0.5-7.9c1.1-4.2,1.6-8.2,1.6-12c0.1,0,0.4-1.2,0.9-3.4
		c-2-3.1-2.9-5.9-2.9-8.2C267.1,34.9,267.3,33,267.5,33z"/>
	<path d="M357.1,27h1.1c0.5,0.2,0.7,0.6,0.7,1.4v1.1c-0.8,0.9-1.1,2.1-1.1,3.6v3.2c0,0.5-0.8,4-2.3,10.6c-0.2,0.9-0.2,2-0.2,3.2
		c0,0.8,0.6,3.7,1.8,8.6v0.7c-0.6,3.4-1.4,10.8-2.3,22.2c-0.4,1.5-0.9,5.1-1.6,10.9c1.2,2.6,1.8,4.9,1.8,7v1.4
		c0,0.3-0.1,0.6-0.2,0.9c1.2,2,1.8,3.4,1.8,4.3c-4,0.6-7.4,1-10.2,1.1c-3-0.3-4.7-0.5-5-0.5c-2.4,0.3-3.7,0.5-3.9,0.5
		c-0.8,0-1.1-0.6-1.1-1.8c0-2.4,0.9-5.2,2.7-8.4c0-0.6,0.1-0.9,0.2-0.9l-0.7-3.9c0.9-4.6,1.4-9.2,1.4-13.6v-0.9l-1.1-0.2h-1.1
		c-6.5,0.6-9.7,1.6-9.7,2.9c0,1.3-0.8,3.4-2.3,6.1c0,2.7-0.9,5-2.7,7c-2.5,2.9-6.5,10.8-11.8,23.8c-1.3,2.3-2.5,3.5-3.6,3.6
		c-0.3-0.5-0.5-0.9-0.5-1.4c1.7-19.3,2.6-29.9,2.9-31.9c1.8-6.3,2.7-10,2.7-11.1v-2.9l1.8-14c0-7.6,0.5-12.2,1.4-14
		c0.7-1.5,1.6-4.1,2.7-7.7c1.2-1.2,2.5-1.8,3.6-1.8h0.7c4.1,0.5,6.4,0.7,6.8,0.7c2,0,5.3-1.4,9.7-4.3c3.8-0.6,6.4-1.1,7.9-1.6
		C352.7,29.4,355.9,28.1,357.1,27z M330.4,63.2v0.2c0.2,0,0.4,0.1,0.7,0.2c0.3-0.3,2.1-0.6,5.2-1.1c1.1-0.7,1.6-1.7,1.6-2.9
		c-0.6-1.1-0.9-2.9-0.9-5.4v-3.6c-0.3-0.4-0.5-0.7-0.5-0.9h-0.7c-1.1,0-1.8,1.2-2.3,3.6C331.4,58,330.4,61.3,330.4,63.2z"/>
	<path d="M380,31.1c0,0.2,1.7,0.3,5,0.5c0.8,0,1.1-0.2,1.1-0.5c2.3,0.2,3.9,0.2,5,0.2h0.2c3,0,6.2-0.1,9.5-0.2
		c7.1,0.5,10.6,1.4,10.6,2.9c2.1,5.6,3.2,10,3.2,13.4c0,3.1-2.7,6.8-8.2,11.3l-3.2,3.2v0.2c2.9,0.4,6.6,2.6,11.3,6.8
		c0.8,1.4,1.1,2.5,1.1,3.2c0,0.6-0.7,2.5-2,5.7c0,3-1.1,6.3-3.2,10c-1.5,6.3-2.9,9.5-4.1,9.5c-1.2,1-4.4,1.9-9.5,2.5l-8.6,4.5
		c-5.2,0.9-10.6,2.5-16.1,4.8c-3.3,0.2-7,1.6-11.1,4.1c-3,2.1-5.8,3.2-8.4,3.2h-0.2c-0.3,0-0.5-0.2-0.5-0.7c2.5-4.4,4.8-7.6,6.8-9.5
		c0.6,0,1.2-3.3,1.8-10c3.6-11.8,5.4-23.7,5.4-35.6l2.9-18.6v-0.2c0-0.9-1.4-2.7-4.3-5.2l-0.5-1.6c0-1.2,1.6-1.8,4.8-1.8L380,31.1z
		 M381.8,75.2c-2.3,6.4-3.8,11.7-4.5,15.9h0.5c1.7,0,6-1.4,12.9-4.1c1.4-1.9,2.9-3.1,4.5-3.6c1.1-2.9,1.6-5.1,1.6-6.8
		c0-1.8-0.5-2.7-1.6-2.7c-1.1-0.2-1.8-0.3-2-0.5C393.1,74,389.4,74.6,381.8,75.2z M382.5,56.4h0.7c7.2-1.4,10.9-2.6,10.9-3.6
		c2-1,3.8-3.6,5.2-7.9c0-0.7,0.1-1.1,0.2-1.4l-0.5-0.2h-0.7c-1.7,0.5-6,1-12.7,1.6c-1.7,0.7-2.5,3.2-2.5,7.5L382.5,56.4z"/>
	<path d="M438,29.3c2.9,0,5.9,1.4,9.1,4.3c5.1,3.7,7.7,6.8,7.7,9.5c2.7,6.6,4.1,11,4.1,13.1c0,1.1-0.4,1.9-1.1,2.5l-12.2-2.5
		c-2.4,0-3.6-0.5-3.6-1.4v-0.2c0-0.2,0.2-0.9,0.5-2c0-2.8-2.2-6.8-6.6-12c-2.7,0.7-4.2,2.3-4.5,5c-0.2,0.2-0.2,0.7-0.2,1.4
		c0,0.5,0.7,2.4,2,5.7c0.1,3.8,0.8,5.7,2,5.7c3,2,4.9,3.3,5.7,4.1c3.2,3.5,6.2,5.8,9.1,6.8c5.6,1.7,9.3,4.3,11.3,7.9
		c3.8,6.9,5.7,15.1,5.7,24.5c-0.6,10.6-1.4,15.9-2.5,15.9h-0.5c-1.9-3-3.4-5.3-4.8-6.8c-3.7-3.5-9.7-7.6-17.9-12
		c-7.9-5.7-12.6-8.6-14-8.6c-2.3-1.2-5.4-2-9.1-2.5l-0.2-0.5v-0.5c0-0.5,2.6-1,7.9-1.6c1.1-0.2,2.6-0.2,4.5-0.2h2.7
		c5.6,0,11,1,16.1,2.9v-0.2c-0.9-3.5-2.3-6-4.1-7.5c-0.8-2.2-4.6-4.3-11.3-6.6c-2-0.5-4.4-2.2-7-5c-0.4-0.9-2.8-2.5-7-4.5
		c-2.2-1.2-3.7-3.4-4.5-6.6c-0.5-5.3-0.7-8.2-0.7-8.6c0.3-7.9,1.3-11.8,2.9-11.8c0.9-0.1,2.7-1.7,5.4-4.8c0-0.6,3.9-1.4,11.6-2.3
		C434.4,29.7,435.6,29.5,438,29.3z"/>
</g>
</svg>
